<svg width="32" height="32" viewBox="0 0 32 32" fill="none" xmlns="http://www.w3.org/2000/svg">
<path d="M23.9343 31.6533C24.2031 31.6533 24.4781 31.5471 24.6844 31.3408C25.0969 30.9283 25.0969 30.2533 24.6844 29.8408L10.5656 15.7221L24.4781 1.80957C24.8906 1.39707 24.8906 0.722071 24.4781 0.309571C24.0656 -0.10293 23.3906 -0.10293 22.9781 0.30957L8.30938 14.9721C7.89688 15.3846 7.89688 16.0596 8.30938 16.4721L23.1781 31.3408C23.3906 31.5533 23.6593 31.6533 23.9343 31.6533Z" fill="#1C2541"/>
<path d="M23.9343 31.6533C24.2031 31.6533 24.4781 31.5471 24.6844 31.3408C25.0969 30.9283 25.0969 30.2533 24.6844 29.8408L10.5656 15.7221L24.4781 1.80957C24.8906 1.39707 24.8906 0.722071 24.4781 0.309571C24.0656 -0.10293 23.3906 -0.10293 22.9781 0.30957L8.30938 14.9721C7.89688 15.3846 7.89688 16.0596 8.30938 16.4721L23.1781 31.3408C23.3906 31.5533 23.6593 31.6533 23.9343 31.6533Z" fill="#1C2541"/>
</svg>
