<svg width="281" height="46" viewBox="0 0 281 46" fill="none" xmlns="http://www.w3.org/2000/svg">
<path d="M255.615 37.264V10.384H281V17.104H264.066V20.56H278.119V26.512H264.066V30.544H281V37.264H255.615Z" fill="#F2F2F2"/>
<path d="M237.597 37.648C228.474 37.648 223.224 33.68 223.224 26.768V10.384H231.675V26.576C231.675 29.136 233.788 30.544 237.597 30.544C241.407 30.544 243.487 29.136 243.487 26.576V10.384H251.938V26.768C251.938 33.68 246.72 37.648 237.597 37.648Z" fill="#F2F2F2"/>
<path d="M218.158 41.776H209.899L207.978 37.392C206.826 37.552 205.609 37.648 204.297 37.648C193.765 37.648 188.099 32.24 188.099 23.824C188.099 15.408 193.765 10 204.297 10C214.797 10 220.495 15.408 220.495 23.824C220.495 28.656 218.606 32.496 215.053 34.896L218.158 41.776ZM196.582 23.824C196.582 27.984 198.919 30.544 204.297 30.544C209.643 30.544 211.98 27.984 211.98 23.824C211.98 19.664 209.643 17.104 204.297 17.104C198.919 17.104 196.582 19.664 196.582 23.824Z" fill="#F2F2F2"/>
<path d="M160.549 37.264V10.384H185.934V17.104H169V20.56H183.053V26.512H169V30.544H185.934V37.264H160.549Z" fill="#F2F2F2"/>
<path d="M135.477 37.264V10.384H143.928V30.352H157.981V37.264H135.477Z" fill="#F2F2F2"/>
<path d="M123.191 37.264V10.384H131.642V37.264H123.191Z" fill="#F2F2F2"/>
<path d="M82.2703 37.264V10.384H93.8585L100.965 23.12L107.752 10.384H119.34V37.264H111.081V19.344L103.974 33.36H98.02L90.5293 19.056V37.264H82.2703Z" fill="#F2F2F2"/>
<path d="M51.3697 18.768C51.3697 13.2 56.3955 10 65.1347 10C74.034 10 78.9318 13.328 78.9318 19.44H70.3526C70.3526 17.232 68.0478 16.144 64.7506 16.144C61.5814 16.144 59.8528 17.168 59.8528 18.672C59.8528 20.304 62.0936 20.624 64.7506 20.816C70.9288 21.296 79.3799 21.136 79.3799 28.24C79.3799 34.544 74.4821 37.648 65.4228 37.648C55.9154 37.648 51.0176 34.224 51.0176 28.08H59.6287C59.6287 30.352 61.7735 31.504 65.967 31.504C69.2963 31.504 70.8648 30.768 70.8648 29.296C70.8648 27.344 68.1438 27.056 64.6225 26.832C59.0205 26.48 51.3697 26.288 51.3697 18.768Z" fill="#F2F2F2"/>
<path d="M20.5247 1.70106C25.384 1.70106 25.884 0 30.7833 0C35.6826 0 37.8823 3.4419 38.0623 3.72044C38.0623 3.73039 38.0823 3.74033 38.0923 3.75028C38.4322 4.09845 44.5014 10.6938 38.0823 24.2127L37.6123 25.2472C37.4724 25.5556 37.3924 25.8939 37.3924 26.2321C37.3924 28.6816 36.8224 39.2238 32.503 44.4264H32.493C32.3631 44.5756 30.1434 46.8934 27.5137 45.6102C26.3639 45.0432 25.564 43.9589 25.274 42.7154C25.1441 42.1384 25.1741 41.4222 25.0941 40.5766C24.8641 38.0997 23.7143 30.231 20.6347 28.4703C20.5947 28.4504 20.5047 28.4405 20.5047 28.4405C20.5047 28.4405 20.4247 28.4504 20.3847 28.4703C17.3052 30.231 16.1553 38.0997 15.9253 40.5766C15.8454 41.4222 15.8754 42.1384 15.7454 42.7154C15.4554 43.9589 14.6655 45.0432 13.5057 45.6102C10.866 46.9034 8.65636 44.5756 8.52637 44.4463H8.51638C4.19698 39.2337 3.68705 28.6593 3.62705 26.2321C3.62705 25.8939 3.54707 25.5556 3.40709 25.2472L2.93715 24.2127C-3.49196 10.6938 2.5872 4.09845 2.92715 3.75028C2.93715 3.74033 2.94715 3.73039 2.95715 3.72044C3.14712 3.4419 5.53679 0 10.2361 0C14.9355 0 15.6354 1.70106 20.4947 1.70106H20.5447H20.5247Z" fill="#F2F2F2"/>
</svg>
