<svg width="48" height="53" viewBox="0 0 48 53" fill="none" xmlns="http://www.w3.org/2000/svg">
<path d="M23.648 1.95991C29.2468 1.95991 29.8228 0 35.4677 0C41.1126 0 43.647 3.96567 43.8544 4.28659C43.8544 4.29805 43.8774 4.30951 43.8889 4.32098C44.2806 4.72213 51.2733 12.3211 43.8774 27.8972L43.3359 29.0892C43.1747 29.4445 43.0825 29.8342 43.0825 30.2239C43.0825 33.0462 42.4259 45.1926 37.4492 51.1869H37.4376C37.2879 51.3589 34.7304 54.0294 31.7006 52.5509C30.3758 51.8976 29.4542 50.6483 29.1201 49.2156C28.9703 48.5508 29.0049 47.7256 28.9127 46.7514C28.6478 43.8974 27.323 34.8314 23.7748 32.8027C23.7287 32.7798 23.625 32.7684 23.625 32.7684C23.625 32.7684 23.5328 32.7798 23.4867 32.8027C19.9385 34.8314 18.6137 43.8974 18.3488 46.7514C18.2566 47.7256 18.2912 48.5508 18.1414 49.2156C17.8073 50.6483 16.8972 51.8976 15.5609 52.5509C12.5196 54.0408 9.97363 51.3589 9.82387 51.2099H9.81235C4.83565 45.2041 4.24812 33.0205 4.179 30.2239C4.179 29.8342 4.08684 29.4445 3.92556 29.0892L3.38411 27.8972C-4.02334 12.3211 2.9809 4.72213 3.37259 4.32098C3.38411 4.30951 3.39563 4.29805 3.40715 4.28659C3.62603 3.96567 6.37934 0 11.7938 0C17.2083 0 18.0147 1.95991 23.6135 1.95991H23.6711H23.648Z" fill="#F2F2F2"/>
</svg>
